<?xml version="1.0" standalone="no"?>
<!DOCTYPE svg PUBLIC "-//W3C//DTD SVG 20010904//EN"
 "http://www.w3.org/TR/2001/REC-SVG-20010904/DTD/svg10.dtd">
<svg version="1.0" xmlns="http://www.w3.org/2000/svg"
 width="796.000000pt" height="1613.000000pt" viewBox="0 0 796.000000 1613.000000"
 preserveAspectRatio="xMidYMid meet">

<g transform="translate(0.000000,1613.000000) scale(0.100000,-0.100000)"
fill="#000000" stroke="none">
<path d="M1343 16109 c-273 -10 -391 -28 -543 -78 -309 -103 -484 -250 -617
-516 -82 -163 -123 -307 -142 -500 -29 -292 -36 -1052 -11 -1119 7 -20 7 -20
13 -1 11 36 26 294 37 625 16 503 34 658 89 777 17 34 33 63 37 63 3 0 3 -8
-1 -17 -13 -35 -34 -181 -45 -313 -42 -539 -52 -2605 -40 -8070 10 -4190 18
-5469 40 -5814 12 -191 22 -253 56 -342 38 -101 27 -125 -17 -39 -83 162 -94
235 -110 730 -6 190 -14 1994 -19 4260 -9 3725 -14 4485 -30 4485 -15 0 -20
-497 -26 -2295 -7 -1937 9 -5767 26 -6400 11 -398 23 -580 46 -670 19 -78 89
-223 155 -322 75 -113 243 -275 367 -356 56 -37 102 -73 102 -81 0 -7 -14 -19
-30 -26 -33 -14 -38 -25 -15 -34 34 -13 245 -26 560 -36 537 -16 3424 -23
4635 -11 1239 13 1516 23 1554 61 6 6 -10 18 -47 35 -31 13 -57 28 -57 33 0
12 46 52 131 115 42 30 106 83 143 118 139 130 277 351 296 474 33 207 46 962
60 3275 24 4263 24 6991 -1 6390 -10 -231 -27 -2490 -39 -5075 -15 -3236 -28
-4199 -61 -4440 -11 -83 -53 -204 -95 -271 l-23 -39 -1 31 c0 18 11 70 25 118
70 243 70 251 67 6521 -2 5160 6 7710 26 7795 25 108 46 -739 72 -2892 6 -466
14 -858 19 -870 18 -48 25 301 26 1212 0 514 -6 1318 -14 1785 l-13 850 -89
175 c-124 247 -204 351 -364 472 -90 69 -250 150 -339 173 -90 23 -235 34
-567 46 -386 13 -4928 20 -5226 8z m3372 -39 c1713 -9 2137 -16 2306 -40 50
-7 102 -24 162 -52 48 -23 86 -43 84 -45 -2 -1 -41 4 -88 13 -159 29 -767 36
-2949 36 -2064 0 -3227 -11 -3370 -32 -36 -6 -84 -13 -107 -16 -105 -16 6 48
149 85 124 32 326 43 938 50 856 11 927 11 2875 1z m-2800 -420 l91 0 17 -107
c23 -148 70 -244 176 -355 l77 -82 1660 -12 1659 -13 97 65 c105 70 165 131
198 198 11 24 35 101 54 172 l33 129 384 0 c251 -1 415 -5 474 -14 276 -38
390 -111 550 -356 l79 -120 9 -4145 c9 -4336 3 -8659 -13 -9473 -9 -468 -10
-479 -34 -547 -65 -189 -229 -357 -407 -419 -166 -58 -419 -64 -3019 -64
-2202 0 -2729 6 -2926 34 -188 26 -359 139 -456 301 -56 95 -75 151 -87 264
-31 280 -34 738 -38 7320 l-4 6642 57 113 c97 195 184 297 322 378 146 86 268
103 701 95 140 -2 295 -4 346 -4z m-1419 -67 c-8 -21 -30 -72 -49 -114 -46
-99 -91 -242 -116 -366 -18 -88 -22 -162 -31 -639 -39 -2072 -31 -11914 10
-13099 8 -224 13 -274 34 -360 29 -119 88 -290 122 -358 43 -84 19 -76 -40 15
-72 110 -123 218 -136 288 -41 218 -49 1326 -49 6710 0 4490 8 6610 29 7080
23 543 44 640 170 813 56 75 76 86 56 30z m7255 -158 c28 -49 37 -85 21 -85
-8 0 -36 52 -84 155 l-19 40 26 -30 c15 -16 39 -52 56 -80z m-133 -33 c53
-115 69 -185 82 -363 30 -418 36 -3087 21 -10534 l-7 -3560 -88 -144 c-111
-182 -149 -238 -153 -224 -2 6 11 42 30 80 82 162 143 391 157 590 19 258 30
2113 30 5173 0 4149 -21 7808 -50 8575 l-9 240 -45 119 c-25 65 -46 127 -46
137 0 42 37 -1 78 -89z m-268 -15112 c-59 -52 -167 -104 -255 -123 -295 -64
-923 -74 -3988 -58 l-2187 11 -128 71 c-70 39 -134 77 -142 85 -24 23 33 18
151 -15 276 -77 223 -76 3164 -76 3045 0 2964 -2 3260 99 166 57 184 58 125 6z"/>
<path d="M40 13660 c0 -55 4 -100 9 -100 11 0 20 95 14 153 -10 82 -23 51 -23
-53z"/>
<path d="M25 13403 c-15 -41 -25 -325 -16 -464 10 -144 16 -179 32 -179 18 0
24 85 24 330 0 245 -6 330 -24 330 -5 0 -12 -8 -16 -17z"/>
<path d="M25 11699 c-13 -19 -25 -214 -19 -294 7 -92 21 -155 34 -155 5 0 13
17 17 38 10 48 10 358 0 395 -8 28 -21 35 -32 16z"/>
</g>
</svg>
