<?xml version="1.0" standalone="no"?>
<!DOCTYPE svg PUBLIC "-//W3C//DTD SVG 20010904//EN"
 "http://www.w3.org/TR/2001/REC-SVG-20010904/DTD/svg10.dtd">
<svg version="1.0" xmlns="http://www.w3.org/2000/svg"
 width="400.000000pt" height="400.000000pt" viewBox="0 0 400.000000 400.000000"
 preserveAspectRatio="xMidYMid meet">

<g transform="translate(0.000000,400.000000) scale(0.100000,-0.100000)"
fill="#000000" stroke="none">
<path d="M1271 3984 c-101 -27 -155 -75 -189 -167 -17 -43 -21 -84 -24 -205
-2 -84 0 -152 4 -152 3 0 8 69 10 153 3 118 8 160 21 187 10 19 15 26 11 15
-22 -73 -24 -273 -22 -1790 3 -1530 4 -1653 20 -1693 10 -24 13 -40 9 -37 -5
3 -16 26 -25 52 -14 41 -16 166 -16 1145 0 604 -3 1098 -7 1098 -5 0 -7 -496
-6 -1102 3 -986 5 -1109 19 -1155 19 -59 67 -121 121 -154 31 -19 34 -24 18
-29 -43 -15 157 -20 835 -19 682 0 827 4 772 23 -22 7 -22 9 16 36 45 32 77
71 100 120 15 32 17 142 22 1200 3 641 3 1172 0 1180 -3 8 -7 -509 -10 -1150
-5 -1111 -6 -1167 -24 -1208 -24 -56 -29 -49 -10 14 12 43 14 281 12 1751 -2
1137 0 1695 7 1680 6 -13 12 -227 15 -537 3 -367 6 -460 10 -325 3 105 3 343
0 530 l-5 340 -28 57 c-32 65 -80 109 -146 135 -42 16 -104 18 -751 20 -595 2
-713 0 -759 -13z m1499 -16 l35 -18 -45 8 c-64 10 -1457 9 -1505 -2 -55 -12
-37 4 22 20 38 10 201 13 753 11 647 -2 708 -3 740 -19z m-1229 -121 c3 -22
18 -50 33 -65 l26 -27 398 -3 398 -3 35 23 c25 18 37 35 45 68 l11 45 114 0
c134 0 176 -15 217 -78 l27 -41 3 -1674 c1 -1109 -1 -1687 -8 -1712 -14 -51
-46 -89 -94 -111 -39 -17 -81 -19 -734 -19 -601 0 -698 2 -729 15 -50 21 -72
42 -94 90 -18 38 -19 111 -19 1714 l0 1675 21 43 c22 45 61 79 107 93 15 5 74
8 132 7 l105 -2 6 -38z m-380 -6 c-11 -21 -25 -67 -31 -102 -14 -91 -14 -3264
1 -3344 6 -33 20 -78 30 -100 15 -31 16 -35 3 -20 -9 11 -25 38 -35 60 -18 39
-19 100 -18 1730 0 1782 -2 1722 43 1790 25 38 29 30 7 -14z m1759 -25 c0 -12
-5 -7 -19 24 -11 24 -11 24 3 6 9 -11 16 -24 16 -30z m-26 -24 c15 -43 16
-217 14 -1742 l-3 -1695 -28 -47 c-34 -58 -45 -63 -17 -9 11 22 24 70 30 108
15 99 9 3337 -7 3378 -6 17 -14 39 -19 49 -5 13 -4 17 4 13 6 -4 18 -29 26
-55z m-79 -3598 c-58 -43 -84 -45 -831 -42 l-709 3 -40 22 c-47 26 -38 28 29
8 42 -13 157 -15 750 -14 653 0 705 1 756 19 69 23 69 23 45 4z"/>
<path d="M1063 3405 c0 -22 2 -30 4 -17 2 12 2 30 0 40 -3 9 -5 -1 -4 -23z"/>
<path d="M1055 3270 c0 -44 3 -80 8 -80 4 0 7 36 7 80 0 44 -3 80 -7 80 -5 0
-8 -36 -8 -80z"/>
<path d="M1055 2885 c0 -30 3 -55 8 -55 4 0 7 25 7 55 0 30 -3 55 -7 55 -5 0
-8 -25 -8 -55z"/>
</g>
</svg>
